<mxfile host="app.diagrams.net" agent="Mozilla/5.0 (Windows NT 10.0; Win64; x64) AppleWebKit/537.36 (KHTML, like Gecko) Chrome/129.0.0.0 Safari/537.36" version="24.7.16">
  <diagram id="C5RBs43oDa-KdzZeNtuy" name="Page-1">
    <mxGraphModel dx="1136" dy="585" grid="1" gridSize="10" guides="1" tooltips="1" connect="1" arrows="1" fold="1" page="1" pageScale="1" pageWidth="827" pageHeight="1169" math="0" shadow="0">
      <root>
        <mxCell id="WIyWlLk6GJQsqaUBKTNV-0" />
        <mxCell id="WIyWlLk6GJQsqaUBKTNV-1" parent="WIyWlLk6GJQsqaUBKTNV-0" />
        <mxCell id="6ctcbmbpShAzQk9PYFhT-0" value="INICIO" style="rounded=1;whiteSpace=wrap;html=1;" vertex="1" parent="WIyWlLk6GJQsqaUBKTNV-1">
          <mxGeometry x="370" y="120" width="96" height="40" as="geometry" />
        </mxCell>
        <mxCell id="6ctcbmbpShAzQk9PYFhT-1" value="OUT&lt;br style=&quot;font-size: 10px;&quot;&gt;&quot;Introduzca segundos&quot;" style="shape=parallelogram;perimeter=parallelogramPerimeter;whiteSpace=wrap;html=1;fixedSize=1;fontSize=10;" vertex="1" parent="WIyWlLk6GJQsqaUBKTNV-1">
          <mxGeometry x="354" y="190" width="120" height="40" as="geometry" />
        </mxCell>
        <mxCell id="6ctcbmbpShAzQk9PYFhT-2" value="&lt;div style=&quot;font-size: 10px;&quot;&gt;IN&lt;/div&gt;totalSegundos" style="shape=parallelogram;perimeter=parallelogramPerimeter;whiteSpace=wrap;html=1;fixedSize=1;fontSize=10;" vertex="1" parent="WIyWlLk6GJQsqaUBKTNV-1">
          <mxGeometry x="354" y="260" width="120" height="40" as="geometry" />
        </mxCell>
        <mxCell id="6ctcbmbpShAzQk9PYFhT-3" value="segundos = totalSegundos % 3600" style="rounded=0;whiteSpace=wrap;html=1;fontSize=10;" vertex="1" parent="WIyWlLk6GJQsqaUBKTNV-1">
          <mxGeometry x="354" y="330" width="120" height="40" as="geometry" />
        </mxCell>
        <mxCell id="6ctcbmbpShAzQk9PYFhT-4" value="horas =&amp;nbsp;totalSegundos / 3600" style="rounded=0;whiteSpace=wrap;html=1;fontSize=10;" vertex="1" parent="WIyWlLk6GJQsqaUBKTNV-1">
          <mxGeometry x="354" y="400" width="120" height="40" as="geometry" />
        </mxCell>
        <mxCell id="6ctcbmbpShAzQk9PYFhT-5" value="minutos = segundos / 60" style="rounded=0;whiteSpace=wrap;html=1;fontSize=10;" vertex="1" parent="WIyWlLk6GJQsqaUBKTNV-1">
          <mxGeometry x="354" y="470" width="120" height="40" as="geometry" />
        </mxCell>
        <mxCell id="6ctcbmbpShAzQk9PYFhT-6" value="segundos = segundos % 60" style="rounded=0;whiteSpace=wrap;html=1;fontSize=10;" vertex="1" parent="WIyWlLk6GJQsqaUBKTNV-1">
          <mxGeometry x="354" y="540" width="120" height="40" as="geometry" />
        </mxCell>
        <mxCell id="6ctcbmbpShAzQk9PYFhT-7" value="OUT&lt;br style=&quot;font-size: 10px;&quot;&gt;&quot;H:&quot;horas &quot;M:&quot;minutos &quot;S:&quot;segundos" style="shape=parallelogram;perimeter=parallelogramPerimeter;whiteSpace=wrap;html=1;fixedSize=1;fontSize=10;" vertex="1" parent="WIyWlLk6GJQsqaUBKTNV-1">
          <mxGeometry x="354" y="610" width="120" height="40" as="geometry" />
        </mxCell>
        <mxCell id="6ctcbmbpShAzQk9PYFhT-8" value="" style="endArrow=classic;html=1;rounded=0;exitX=0.5;exitY=1;exitDx=0;exitDy=0;" edge="1" parent="WIyWlLk6GJQsqaUBKTNV-1" source="6ctcbmbpShAzQk9PYFhT-0" target="6ctcbmbpShAzQk9PYFhT-1">
          <mxGeometry width="50" height="50" relative="1" as="geometry">
            <mxPoint x="430" y="330" as="sourcePoint" />
            <mxPoint x="480" y="280" as="targetPoint" />
          </mxGeometry>
        </mxCell>
        <mxCell id="6ctcbmbpShAzQk9PYFhT-9" value="" style="endArrow=classic;html=1;rounded=0;exitX=0.5;exitY=1;exitDx=0;exitDy=0;entryX=0.5;entryY=0;entryDx=0;entryDy=0;" edge="1" parent="WIyWlLk6GJQsqaUBKTNV-1" source="6ctcbmbpShAzQk9PYFhT-1" target="6ctcbmbpShAzQk9PYFhT-2">
          <mxGeometry width="50" height="50" relative="1" as="geometry">
            <mxPoint x="428" y="170" as="sourcePoint" />
            <mxPoint x="426" y="200" as="targetPoint" />
          </mxGeometry>
        </mxCell>
        <mxCell id="6ctcbmbpShAzQk9PYFhT-10" value="" style="endArrow=classic;html=1;rounded=0;exitX=0.5;exitY=1;exitDx=0;exitDy=0;entryX=0.548;entryY=-0.052;entryDx=0;entryDy=0;entryPerimeter=0;" edge="1" parent="WIyWlLk6GJQsqaUBKTNV-1" source="6ctcbmbpShAzQk9PYFhT-2" target="6ctcbmbpShAzQk9PYFhT-3">
          <mxGeometry width="50" height="50" relative="1" as="geometry">
            <mxPoint x="424" y="240" as="sourcePoint" />
            <mxPoint x="424" y="270" as="targetPoint" />
          </mxGeometry>
        </mxCell>
        <mxCell id="6ctcbmbpShAzQk9PYFhT-11" value="" style="endArrow=classic;html=1;rounded=0;exitX=0.531;exitY=1.046;exitDx=0;exitDy=0;entryX=0.535;entryY=-0.003;entryDx=0;entryDy=0;entryPerimeter=0;exitPerimeter=0;" edge="1" parent="WIyWlLk6GJQsqaUBKTNV-1" source="6ctcbmbpShAzQk9PYFhT-3" target="6ctcbmbpShAzQk9PYFhT-4">
          <mxGeometry width="50" height="50" relative="1" as="geometry">
            <mxPoint x="424" y="310" as="sourcePoint" />
            <mxPoint x="430" y="338" as="targetPoint" />
          </mxGeometry>
        </mxCell>
        <mxCell id="6ctcbmbpShAzQk9PYFhT-12" value="" style="endArrow=classic;html=1;rounded=0;exitX=0.548;exitY=1.015;exitDx=0;exitDy=0;entryX=0.548;entryY=-0.06;entryDx=0;entryDy=0;entryPerimeter=0;exitPerimeter=0;" edge="1" parent="WIyWlLk6GJQsqaUBKTNV-1" source="6ctcbmbpShAzQk9PYFhT-4" target="6ctcbmbpShAzQk9PYFhT-5">
          <mxGeometry width="50" height="50" relative="1" as="geometry">
            <mxPoint x="428" y="382" as="sourcePoint" />
            <mxPoint x="428" y="410" as="targetPoint" />
          </mxGeometry>
        </mxCell>
        <mxCell id="6ctcbmbpShAzQk9PYFhT-13" value="" style="endArrow=classic;html=1;rounded=0;exitX=0.562;exitY=1.064;exitDx=0;exitDy=0;entryX=0.544;entryY=-0.064;entryDx=0;entryDy=0;entryPerimeter=0;exitPerimeter=0;" edge="1" parent="WIyWlLk6GJQsqaUBKTNV-1" source="6ctcbmbpShAzQk9PYFhT-5" target="6ctcbmbpShAzQk9PYFhT-6">
          <mxGeometry width="50" height="50" relative="1" as="geometry">
            <mxPoint x="438" y="392" as="sourcePoint" />
            <mxPoint x="438" y="420" as="targetPoint" />
          </mxGeometry>
        </mxCell>
        <mxCell id="6ctcbmbpShAzQk9PYFhT-14" value="" style="endArrow=classic;html=1;rounded=0;exitX=0.57;exitY=1.021;exitDx=0;exitDy=0;entryX=0.548;entryY=-0.055;entryDx=0;entryDy=0;entryPerimeter=0;exitPerimeter=0;" edge="1" parent="WIyWlLk6GJQsqaUBKTNV-1" source="6ctcbmbpShAzQk9PYFhT-6" target="6ctcbmbpShAzQk9PYFhT-7">
          <mxGeometry width="50" height="50" relative="1" as="geometry">
            <mxPoint x="448" y="402" as="sourcePoint" />
            <mxPoint x="448" y="430" as="targetPoint" />
          </mxGeometry>
        </mxCell>
      </root>
    </mxGraphModel>
  </diagram>
</mxfile>
